<?xml version="1.0" encoding="utf-8"?>
<svg width="252px" height="177px" viewBox="0 0 252 177" version="1.1" xmlns:xlink="http://www.w3.org/1999/xlink" xmlns="http://www.w3.org/2000/svg">
  <desc>Created with Lunacy</desc>
  <g id="jbox-new" transform="matrix(-1 0 0 1 251.91856 0)">
    <path d="M103.916 4.00089C120.846 -2.54911 140.676 -1.00911 156.306 8.27089C174.146 18.4309 186.316 37.8909 187.266 58.4409C199.556 60.3509 210.956 67.3509 217.936 77.6809C226.976 90.7409 228.126 108.491 221.836 122.951C215.416 138.121 200.456 149.571 183.876 150.711C159.136 150.441 134.386 150.631 109.636 150.591C87.0162 150.031 64.3562 150.501 41.7362 150.301C27.3862 148.101 14.3262 139.081 7.01616 126.561C-0.673843 113.861 -2.00384 97.7409 2.83616 83.7709C7.08616 71.0009 17.5062 61.0309 29.6762 55.7009C32.2362 46.5709 38.1562 38.3009 46.4862 33.6409C54.4662 28.9809 64.2662 28.1309 73.1462 30.3709C80.0662 18.4709 90.9762 8.84089 103.916 4.00089" transform="translate(12.831558 13.361694)" id="Shape-path" fill="#FFFFFF" stroke="none" />
    <g id="#c8161eff">
      <path d="M176.318 10.4126C159.468 0.272562 138.528 -2.57744 119.528 2.37256C102.928 6.48256 88.0577 16.7926 78.1177 30.6726C71.0677 30.3826 63.8877 31.1926 57.3577 34.0026C44.8377 38.9926 34.7577 49.9326 31.2677 63.0126C22.8977 67.9226 15.4377 74.4826 10.0277 82.5826C2.25772 94.0426 -1.21228 108.313 0.37772 122.063C1.96772 137.193 9.83772 151.483 21.5377 161.153C31.8177 170.013 45.0877 174.513 58.4177 175.983C90.3294 176.224 122.265 176.211 154.192 176.198C163.315 176.194 172.437 176.19 181.558 176.193C183.026 176.265 184.493 176.406 185.959 176.547C189.146 176.853 192.332 177.16 195.538 176.763C216.708 175.983 237.028 163.043 246.208 143.883C253.258 129.713 253.768 112.523 247.808 97.8826C241.348 81.7526 227.188 69.1426 210.628 64.0626C208.798 41.9926 195.318 21.5726 176.318 10.4126ZM85.9777 43.7326C92.8977 31.8326 103.808 22.2026 116.748 17.3626C133.678 10.8126 153.508 12.3526 169.138 21.6326C186.978 31.7926 199.148 51.2526 200.098 71.8026C212.388 73.7126 223.788 80.7126 230.768 91.0426C239.808 104.103 240.958 121.853 234.668 136.313C228.248 151.483 213.288 162.933 196.708 164.073C180.215 163.893 163.717 163.917 147.218 163.941C138.968 163.954 130.718 163.966 122.468 163.953C108.762 163.613 95.042 163.652 81.3249 163.691C72.4029 163.716 63.4822 163.741 54.5677 163.663C40.2177 161.463 27.1577 152.443 19.8477 139.923C12.1577 127.223 10.8277 111.103 15.6677 97.1326C19.9177 84.3626 30.3377 74.3926 42.5077 69.0626C45.0677 59.9326 50.9877 51.6626 59.3177 47.0026C67.2977 42.3426 77.0977 41.4926 85.9777 43.7326Z" id="Shape" fill="#C8161E" fill-rule="evenodd" stroke="none" />
      <path d="M103.577 1.01134C115.627 -1.59866 128.547 0.931343 138.897 7.58134C151.957 15.6213 160.927 29.9613 162.167 45.2813C162.737 48.6313 161.557 52.6213 164.077 55.3813C167.067 59.1313 172.367 57.7813 176.427 59.1913C190.667 62.6913 201.207 76.7713 200.707 91.4013C201.007 108.611 186.757 125.321 169.167 125.801C124.837 125.891 80.507 125.801 36.177 125.851C20.167 125.761 5.43703 113.721 1.35704 98.3813C-1.98296 86.2713 0.837036 72.0813 9.87704 63.0713C14.017 58.8413 19.377 56.2013 24.607 53.5913C29.177 51.2713 29.027 45.5713 31.267 41.5913C35.127 33.4913 44.217 28.3413 53.167 29.3013C57.227 29.3213 60.887 32.8513 64.997 31.1113C69.287 29.9213 70.607 25.2813 72.887 22.0113C79.757 11.2413 91.027 3.48134 103.577 1.01134" transform="translate(25.370682 25.851227)" id="Shape-path" fill="#C8161E" stroke="none" />
      <g id="#ffffffff" transform="matrix(-1 0 0 1 193.93092 75.99998)">
        <path d="M13.8607 0.228891C16.1887 0.228891 18.5166 0.228327 20.8445 0.227762C25.5004 0.226632 30.1562 0.225502 34.8121 0.228891C41.2516 0.295019 47.8285 3.55547 50.9211 9.36427C51.0494 8.46708 51.3043 7.56048 51.5601 6.65071C52.1656 4.49673 52.7761 2.32504 51.7247 0.218716C55.3861 0.231668 59.0475 0.230196 62.7076 0.228724C64.7983 0.227884 66.8886 0.227043 68.9782 0.228891C68.5616 2.28968 69.1807 4.29377 69.7863 6.25421C69.8832 6.56801 69.9798 6.8807 70.0718 7.19233C72.1216 13.7895 74.1919 20.3766 76.2315 26.9738C77.4523 26.1192 78.6883 25.28 79.9295 24.4458C77.6049 17.2331 75.3211 10.0052 73.0525 2.77723C72.7625 1.7345 72.0301 0.920657 71.3739 0.0915535C74.4754 0.104877 77.5783 0.102847 80.6811 0.100817C83.5015 0.0989713 86.3219 0.097126 89.1411 0.106812C90.3924 5.49343 91.6996 10.8699 92.9611 16.2514C97.956 13.3012 103.139 10.6766 108.287 8.01126C108.999 6.70911 109.289 5.21367 109.655 3.78437C109.923 2.79642 109.417 1.9278 108.923 1.08081C108.733 0.754789 108.545 0.431979 108.404 0.106812C110.299 0.0816984 112.195 0.0925413 114.091 0.103385C117.187 0.121091 120.284 0.138799 123.378 0C117.89 19.2067 112.422 38.4235 106.959 57.6353C107.732 58.4186 108.48 59.2172 109.258 59.9954C106.033 59.9929 102.808 59.9941 99.5825 59.9954L99.5729 59.9954C96.3516 59.9967 93.1304 59.9979 89.9092 59.9954C89.96 58.0117 89.8176 56.0127 89.192 54.1205C86.5775 45.8447 84.0292 37.5435 81.4096 29.2729C80.2448 30.2902 79.08 31.3176 77.9101 32.3299C80.8094 41.7196 83.8308 51.0788 86.6029 60.5091C82.6467 60.5015 78.6904 60.5025 74.7341 60.5034C73.4157 60.5037 72.0972 60.5041 70.7788 60.5041C69.8175 56.5417 68.8663 52.5793 67.8998 48.622C65.7635 48.5202 63.6272 48.5355 61.4908 48.5558C55.8804 54.6241 50.5548 60.9517 45.6006 67.5692C42.4368 65.555 39.5222 63.1643 36.9688 60.4227C38.2302 58.6068 38.3676 56.3331 39.039 54.2832C35.1427 57.5946 30.3868 60.2955 25.1731 60.5041C21.6761 60.5104 18.1799 60.5079 14.6839 60.5055C9.78963 60.502 4.89568 60.4985 0 60.5193C0.905398 59.2528 1.6226 57.854 1.9227 56.3229C5.93596 39.1509 9.79662 21.9483 13.6675 4.74572C14.0388 3.26554 13.9828 1.7345 13.8607 0.228891ZM98.7648 40.6819C97.0761 33.4998 95.3416 26.3227 93.663 19.1355C98.424 15.5291 103.241 11.9991 108.221 8.70302C105.062 19.3593 101.918 30.0257 98.7648 40.6819ZM27.8385 9.53721C27.3654 10.6664 27.1467 11.877 26.8466 13.0571C23.6675 25.9158 20.3766 38.749 17.1873 51.6027C18.1599 51.5788 19.1341 51.5922 20.1083 51.6056C21.6306 51.6264 23.1529 51.6473 24.6696 51.5264C27.2942 51.094 29.1966 49.0035 30.8955 47.1265C34.4255 42.7674 36.8467 37.5944 38.4744 32.2536C40.1377 26.7042 40.8955 20.6462 39.1814 15.0205C38.3167 12.1568 36.0125 9.38461 32.8182 9.28797C32.3303 9.29858 31.8276 9.27218 31.3215 9.24561C30.1285 9.18297 28.9171 9.11935 27.8385 9.53721ZM53.7543 39.6544C55.855 33.4336 58.0422 27.2383 60.1327 21.0124C61.7096 25.7937 63.2253 30.5954 64.7513 35.397C62.9507 36.8111 61.1704 38.2455 59.3698 39.6595C57.4979 39.6443 55.6261 39.6443 53.7543 39.6544Z" transform="translate(12.177116 0)" id="Shape" fill="#FFFFFF" fill-rule="evenodd" stroke="none" />
        <path d="M14.9849 2.56492C13.3165 0.235295 9.94413 -0.553116 7.30931 0.387891C4.84744 1.37468 3.98782 4.74194 5.5799 6.84776C3.91661 6.33402 2.22789 5.92202 0.534081 5.55579C0.356054 6.31367 0.178027 7.07157 0 7.83454C4.62872 8.96883 9.26762 10.0675 13.8862 11.2425C14.0388 10.51 14.1914 9.78268 14.349 9.0553C14.0439 9.0197 13.4386 8.9434 13.1334 8.90271C15.2901 7.71246 16.343 4.71651 14.9849 2.56492ZM7.26863 6.81216C5.87492 5.69821 6.28184 3.2516 7.87392 2.54966C10.173 1.36958 14.4203 3.10918 13.4793 6.13565C12.5484 8.70434 8.99804 8.28216 7.26863 6.81216Z" transform="translate(2.6856804 20.80761)" id="Shape" fill="#FFFFFF" fill-rule="evenodd" stroke="none" />
        <path d="M7.18672 0.323765C4.29758 -0.718972 0.426742 0.812074 0.0808595 4.12339C-0.844885 9.05222 6.41865 12.0431 9.58755 8.51814C11.6679 6.20886 11.1847 2.30242 8.45834 0.705253C8.27014 1.40719 8.09211 2.1193 7.91409 2.83142C8.66929 3.18925 9.17656 3.65578 9.25693 4.72869C9.29356 5.68866 8.80744 6.77112 8.07687 7.48558C7.34441 8.10105 6.19395 8.15986 5.27929 7.99423C5.82355 5.43571 6.56616 2.86194 7.18672 0.323765ZM3.87032 7.60764C2.69533 6.91588 1.47965 5.76632 1.90183 4.25054C2.11547 2.65338 3.83471 2.1956 5.18772 2.043C4.87744 3.92501 4.4044 5.7765 3.87032 7.60764Z" transform="translate(4.5936394 32.16378)" id="Shape" fill="#FFFFFF" fill-rule="evenodd" stroke="none" />
        <path d="M3.59108 0C6.68368 1.87183 9.79662 3.71315 12.874 5.61042C12.6807 6.36831 12.4874 7.12112 12.2992 7.8841C9.6186 7.88918 6.94309 7.88918 4.2625 7.8841C6.64807 9.12011 9.0133 10.3917 11.3938 11.6329C11.1954 12.4111 11.0021 13.1944 10.8038 13.9777C7.2025 14.1151 3.60634 14.4304 0 14.5932C0.19329 13.8099 0.391664 13.0316 0.58495 12.2585C3.2808 12.0652 5.98683 12.0601 8.68776 12.1059C6.33271 10.7783 3.87592 9.63894 1.53104 8.29101C1.71924 7.56364 1.90236 6.84644 2.08039 6.12416C4.74572 6.12416 7.40596 6.12416 10.0662 6.12416C7.69589 4.86779 5.37136 3.53003 3.00613 2.26858C3.2045 1.51069 3.39779 0.757886 3.59108 0L3.59108 0Z" transform="translate(0 41.91794)" id="Shape" fill="#FFFFFF" stroke="none" />
      </g>
    </g>
  </g>
</svg>