<?xml version="1.0" encoding="utf-8"?>
<svg width="113px" height="98px" viewBox="0 0 113 98" version="1.1" xmlns:xlink="http://www.w3.org/1999/xlink" xmlns="http://www.w3.org/2000/svg">
  <desc>Created with Lunacy</desc>
  <defs>
    <filter id="filter_1">
      <feColorMatrix in="SourceGraphic" type="matrix" values="0 0 0 0 1 0 0 0 0 1 0 0 0 0 1 0 0 0 1 0" />
    </filter>
  </defs>
  <g id="novpn">
    <g id="#ffffffff" transform="translate(6.910019 1.8693466)" filter="url(#filter_1)">
      <path d="M3.29 0C17.39 2.41 31.45 5.04 45.58 7.3C44.69 13.5 43.43 19.63 42.4 25.81C28.26 23.36 14.11 20.95 0 18.37C1.14 12.25 2.18 6.12 3.29 0" transform="translate(57.92 0)" id="Shape-path" fill="#FFFFFF" stroke="none" />
      <path d="M7.67 0.0204735C11.7 -0.00952721 15.73 -0.00952721 19.76 0.0404739C22.31 6.41047 24.84 12.7805 27.41 19.1405C18.27 19.0605 9.13 19.0705 0 19.1405C2.58 12.7805 5.1 6.39047 7.67 0.0204735L7.67 0.0204735Z" transform="translate(21.39 14.699527)" id="Shape" fill="#FFFFFF" stroke="none" />
      <path d="M15.27 9.23164C11.14 6.09163 14.7569 -1.40843 19.7569 0.231568C23.7269 1.39157 24.8232 5.10143 21.8947 9.37625C21.3247 9.53625 19.8039 9.9732 19.2339 10.1332C18.2039 15.1532 16.72 20.1717 13.52 24.2917C11.2 27.3417 7.46 28.6117 3.95 29.7316C2.58 26.4117 1.23 23.0817 0 19.7117C3.25 19.6217 6.77 19.5317 9.51001 17.5617C12.25 15.4417 13.73 12.2316 15.27 9.23164L15.27 9.23164Z" transform="translate(57.309998 32.458397)" id="Shape" fill="#FFFFFF" stroke="none" />
      <path d="M6.19 0.0200005C18.98 0.110001 31.78 0.150002 44.57 0C46.87 5 48.79 10.17 50.82 15.29C33.88 15.31 16.94 15.31 0 15.29C2.05 10.2 3.99 5.06 6.19 0.0200005L6.19 0.0200005Z" transform="translate(9.690001 47.84)" id="Shape" fill="#FFFFFF" stroke="none" />
      <path d="M4.04 0C24.74 0.0100021 45.44 0.0100021 66.14 0.0100021C67.49 3.32 68.81 6.64 70.18 9.95C46.79 9.94 23.39 9.94 0 9.95C1.38 6.64 2.69 3.31001 4.04 0L4.04 0Z" transform="translate(0 77.259995)" id="Shape" fill="#FFFFFF" stroke="none" />
    </g>
    <g id="#0a64faff">
      <path d="M67.09 0.00934252C68.922 -0.0591431 70.732 0.260785 72.5388 0.580154C72.8426 0.633849 73.1463 0.687528 73.45 0.739342C85.64 2.97934 97.88 4.95934 110.08 7.20934C111.44 7.20934 112.89 8.40934 112.34 9.89934C111.63 15.0593 110.5 20.1493 109.71 25.2993C109.31 26.7593 109.36 28.6193 108.02 29.6093C100.73 28.9693 93.59 27.1793 86.35 26.0893C85.86 28.6293 85.37 31.1693 84.93 33.7193C84.9761 33.7615 85.0225 33.8037 85.069 33.8462C86.7687 35.3964 88.7231 37.1789 88.47 39.7193C88.6349 42.2577 86.583 43.8136 84.7611 45.1949C84.5949 45.321 84.4306 45.4456 84.27 45.5693C83.06 49.9793 81.95 54.5793 79.22 58.3493C76.82 62.0193 72.65 63.7893 68.62 65.0593C71.76 73.0093 74.93 80.9593 78.13 88.8793C79.67 89.2294 82.4921 89.2836 82.5 90.0694C82.5 90.1537 82.5006 90.3739 82.5014 90.6912C82.505 92.0522 82.5132 95.1992 82.5 97.0693L0 97.0693L0 89.9193C1.84 89.0693 3.87 89.0393 5.85 88.9293C15.61 64.6493 25.29 40.3393 35.06 16.0693C35.53 15.8893 36.48 15.5293 36.96 15.3493C36.9671 14.867 36.9675 14.3846 36.9679 13.9026C36.9692 12.3358 36.9706 10.7717 37.2 9.21934C37.8997 7.99314 39.2704 8.01558 40.5806 8.03702C41.0869 8.04531 41.5841 8.05344 42.03 7.98934C42.4509 8.03996 42.908 8.03664 43.3726 8.03326C44.6519 8.02397 45.9877 8.01427 46.78 9.12934C47.04 11.0293 47.03 12.9493 47.13 14.8693C49.51 15.9993 49.99 18.7493 50.95 20.9293C55.19 31.6693 59.49 42.3793 63.84 53.0693C67.18 52.8293 70.93 52.9093 73.65 50.6193C75.66 48.7793 76.85 46.2793 78.16 43.9393L78.1518 43.9238C77.0637 41.8573 75.8031 39.4635 77.05 37.1493C77.84 34.6593 80.58 34.0493 82.73 33.2293C83.26 30.7093 83.69 28.1693 84.13 25.6393C77.89 24.5993 71.64 23.5993 65.42 22.3993C65.3691 22.3861 65.316 22.3726 65.261 22.3585C64.1915 22.0855 62.4189 21.633 62.98 20.1493C63.45 15.3593 64.64 10.6793 65.33 5.91934C65.81 3.93934 65.76 1.65934 67.09 0.00934252ZM64.83 20.2393C65.97 14.1193 67.01 7.98934 68.12 1.86934C82.22 4.27934 96.28 6.90934 110.41 9.16934C109.52 15.3693 108.26 21.4993 107.23 27.6793C93.09 25.2293 78.94 22.8193 64.83 20.2393ZM35.97 16.5893C33.4 22.9593 30.88 29.3493 28.3 35.7093C37.43 35.6393 46.57 35.6293 55.71 35.7093C53.14 29.3493 50.61 22.9793 48.06 16.6093C44.03 16.5593 40 16.5593 35.97 16.5893ZM73.73 51.8893C76.47 49.7693 77.95 46.5593 79.49 43.5593C75.36 40.4193 78.85 33.2193 83.85 34.8593C87.82 36.0193 88.6519 40.7948 85.781 43.3347C84.8934 43.9778 83.92 44.1393 83.35 44.2993C82.32 49.3193 80.94 54.4993 77.74 58.6193C75.42 61.6693 71.68 62.9393 68.17 64.0593C66.8 60.7393 65.45 57.4093 64.22 54.0393C67.47 53.9493 70.99 53.8593 73.73 51.8893ZM22.79 49.7293C20.59 54.7693 18.65 59.9093 16.6 64.9993Q42.01 65.0293 67.42 64.9993C65.39 59.8793 63.47 54.7093 61.17 49.7093C48.38 49.8593 35.58 49.8193 22.79 49.7293ZM6.91 89.0793C8.29 85.7693 9.6 82.4393 10.95 79.1293C31.65 79.1393 52.35 79.1393 73.05 79.1393C74.4 82.4493 75.72 85.7693 77.09 89.0793C53.7 89.0693 30.3 89.0693 6.91 89.0793Z" id="Shape" fill="#0A64FA" fill-rule="evenodd" stroke="none" />
    </g>
    <g id="sorry" fill="#0A64FA" transform="matrix(0.9848078 0.17364818 -0.17364818 0.9848078 72.02258 1.3754308)">
      <path d="M0.492188 12.2539L1.88281 12.0352Q2 12.8711 2.53516 13.3164Q3.07031 13.7617 4.03125 13.7617Q5 13.7617 5.46875 13.3672Q5.9375 12.9727 5.9375 12.4414Q5.9375 11.9648 5.52344 11.6914Q5.23438 11.5039 4.08594 11.2148Q2.53906 10.8242 1.94141 10.5391Q1.34375 10.2539 1.03516 9.75Q0.726563 9.24609 0.726563 8.63672Q0.726563 8.08203 0.980469 7.60938Q1.23437 7.13672 1.67188 6.82422Q2 6.58203 2.56641 6.41406Q3.13281 6.24609 3.78125 6.24609Q4.75781 6.24609 5.49609 6.52734Q6.23437 6.80859 6.58594 7.28906Q6.9375 7.76953 7.07031 8.57422L5.69531 8.76172Q5.60156 8.12109 5.15234 7.76172Q4.70312 7.40234 3.88281 7.40234Q2.91406 7.40234 2.5 7.72266Q2.08594 8.04297 2.08594 8.47266Q2.08594 8.74609 2.25781 8.96484Q2.42969 9.19141 2.79688 9.33984Q3.00781 9.41797 4.03906 9.69922Q5.53125 10.0977 6.12109 10.3516Q6.71094 10.6055 7.04688 11.0898Q7.38281 11.5742 7.38281 12.293Q7.38281 12.9961 6.97266 13.6172Q6.5625 14.2383 5.78906 14.5781Q5.01563 14.918 4.03906 14.918Q2.42188 14.918 1.57422 14.2461Q0.726563 13.5742 0.492188 12.2539ZM8.53125 10.582Q8.53125 8.27734 9.8125 7.16797Q10.8828 6.24609 12.4219 6.24609Q14.1328 6.24609 15.2188 7.36719Q16.3047 8.48828 16.3047 10.4648Q16.3047 12.0664 15.8242 12.9844Q15.3438 13.9023 14.4258 14.4102Q13.5078 14.918 12.4219 14.918Q10.6797 14.918 9.60547 13.8008Q8.53125 12.6836 8.53125 10.582ZM19.2031 6.43359L17.9375 6.43359L17.9375 14.7305L19.3438 14.7305L19.3438 10.3867Q19.3438 9.49609 19.5781 8.74609Q19.7344 8.25391 20.1016 7.97656Q20.4688 7.69922 20.9297 7.69922Q21.4453 7.69922 21.9609 8.00391L22.4453 6.69922Q21.7109 6.24609 21 6.24609Q20.5078 6.24609 20.0977 6.52734Q19.6875 6.80859 19.2031 7.69141L19.2031 6.43359ZM23.2656 6.43359L24.5313 6.43359L24.5313 7.69141Q25.0156 6.80859 25.4258 6.52734Q25.8359 6.24609 26.3281 6.24609Q27.0391 6.24609 27.7734 6.69922L27.2891 8.00391Q26.7734 7.69922 26.2578 7.69922Q25.7969 7.69922 25.4297 7.97656Q25.0625 8.25391 24.9063 8.74609Q24.6719 9.49609 24.6719 10.3867L24.6719 14.7305L23.2656 14.7305L23.2656 6.43359ZM28.3906 16.6055L28.5469 17.9258Q29.0469 18.0977 29.4531 18.0977Q30.125 18.0977 30.6094 17.7734Q31.0938 17.4492 31.4688 16.7539Q31.75 16.2383 32.2578 14.8711L35.4141 6.43359L34.0078 6.43359L32.2344 11.2695Q31.8984 12.1914 31.6563 13.1602Q31.3906 12.1523 31.0547 11.2383L29.3281 6.43359L27.8125 6.43359L30.9609 14.7461Q30.875 14.9727 30.8359 15.0898Q30.5391 15.9258 30.4063 16.1367Q30.2266 16.418 29.9453 16.5742Q29.6641 16.7305 29.1953 16.7305Q28.8516 16.7305 28.3906 16.6055ZM9.97656 10.582Q9.97656 12.1758 10.6719 12.9688Q11.3672 13.7617 12.4219 13.7617Q13.4688 13.7617 14.1641 12.9648Q14.8594 12.168 14.8594 10.5352Q14.8594 8.99609 14.1602 8.20313Q13.4609 7.41016 12.4219 7.41016Q11.3672 7.41016 10.6719 8.19922Q9.97656 8.98828 9.97656 10.582Z" />
    </g>
  </g>
</svg>